<svg width="100" height="101" viewBox="0 0 100 101" fill="none" xmlns="http://www.w3.org/2000/svg">
<g clip-path="url(#clip0_7_143)">
<path d="M78.7849 10.87H62.9482V4.09705C62.9482 3.30024 62.251 2.60303 61.4542 2.60303H37.8486C37.0518 2.60303 36.3546 3.30024 36.3546 4.09705V10.87H19.6215C16.1355 10.87 13.3466 13.6588 13.3466 17.1449V92.2445C13.3466 95.7305 16.1355 98.5194 19.6215 98.5194H78.8845C82.3705 98.5194 85.1594 95.7305 85.1594 92.2445V17.1449C85.0598 13.6588 82.2709 10.87 78.7849 10.87ZM37.8486 30.1927H61.4542C62.251 30.1927 62.9482 29.4955 62.9482 28.6986V22.2245H73.4064V86.6668H25V22.3241H36.3546V28.6986C36.3546 29.5951 37.0518 30.1927 37.8486 30.1927ZM59.9602 5.59108V20.7305V27.2046H39.3426V20.7305V12.2644V5.59108H59.9602ZM82.0717 92.1449C82.0717 93.9377 80.5777 95.4317 78.7849 95.4317H19.6215C17.8287 95.4317 16.3347 93.9377 16.3347 92.1449V17.1449C16.3347 15.352 17.8287 13.858 19.6215 13.858H36.3546V19.3361H23.506C22.7092 19.3361 22.012 20.0333 22.012 20.8301V88.2604C22.012 89.0572 22.7092 89.7544 23.506 89.7544H74.9004C75.6972 89.7544 76.3944 89.0572 76.3944 88.2604V20.8301C76.3944 20.0333 75.6972 19.3361 74.9004 19.3361H62.9482V13.858H78.7849C80.5777 13.858 82.0717 15.352 82.0717 17.1449V92.1449Z" fill="black"/>
<path d="M28.6852 47.0253C28.6852 47.8221 29.3825 48.5193 30.1793 48.5193H68.5259C69.3227 48.5193 70.0199 47.8221 70.0199 47.0253C70.0199 46.2285 69.3227 45.5312 68.5259 45.5312H30.1793C29.3825 45.5312 28.6852 46.2285 28.6852 47.0253Z" fill="black"/>
<path d="M68.5259 55.9893H30.1793C29.3825 55.9893 28.6852 56.6865 28.6852 57.4833C28.6852 58.2801 29.3825 58.9773 30.1793 58.9773H68.5259C69.3227 58.9773 70.0199 58.2801 70.0199 57.4833C70.0199 56.6865 69.3227 55.9893 68.5259 55.9893Z" fill="black"/>
<path d="M68.5259 66.9458H30.1793C29.3825 66.9458 28.6852 67.643 28.6852 68.4398C28.6852 69.2366 29.3825 69.9338 30.1793 69.9338H68.5259C69.3227 69.9338 70.0199 69.2366 70.0199 68.4398C70.0199 67.643 69.3227 66.9458 68.5259 66.9458Z" fill="black"/>
</g>
<defs>
<clipPath id="clip0_7_143">
<rect width="100" height="100" fill="white" transform="translate(0 0.810059)"/>
</clipPath>
</defs>
</svg>
