<svg width="100" height="101" viewBox="0 0 100 101" fill="none" xmlns="http://www.w3.org/2000/svg">
<g clip-path="url(#clip0_7_61)">
<g clip-path="url(#clip1_7_61)">
<path d="M76.7482 74.5035C77.5574 74.5035 78.2131 73.8479 78.2131 73.0387V65.9414C78.2131 65.1322 77.5574 64.4766 76.7482 64.4766H26.5099C25.7008 64.4766 25.0451 65.1322 25.0451 65.9414V73.0387C25.0451 73.8479 25.7008 74.5035 26.5099 74.5035H76.7482ZM58.4881 71.5738H53.0941V67.4062H58.4881V71.5738ZM61.4178 67.4062H66.8119V71.5738H61.4178V67.4062ZM50.1644 71.5738H44.7703V67.4062H50.1644V71.5738ZM41.8406 71.5738H36.4467V67.4062H41.8406V71.5738ZM75.2834 71.5738H69.7416V67.4062H75.2834V71.5738ZM27.9748 67.4062H33.5168V71.5738H27.9748V67.4062Z" fill="black"/>
<path d="M98.5352 90.7149H94.3141V35.0473H94.9297C95.7389 35.0473 96.3945 34.3916 96.3945 33.5824C96.3945 32.7732 95.7389 32.1176 94.9297 32.1176H94.3141V26.9332H94.9297C95.7389 26.9332 96.3945 26.2775 96.3945 25.4684C96.3945 24.6592 95.7389 24.0035 94.9297 24.0035C92.523 24.0035 79.0605 24.0035 76.3273 24.0035C75.5182 24.0035 74.8625 24.6592 74.8625 25.4684C74.8625 26.2775 75.5182 26.9332 76.3273 26.9332H76.943V32.1176H76.3273C75.5182 32.1176 74.8625 32.7732 74.8625 33.5824C74.8625 34.3916 75.5182 35.0473 76.3273 35.0473H76.943V41.425L66.8607 31.3428C65.9387 30.4203 64.7125 29.9125 63.408 29.9125H56.9691V18.2115H57.8197C58.6289 18.2115 59.2846 17.5559 59.2846 16.7467C59.2846 15.9375 58.6289 15.2818 57.8197 15.2818H56.9691V9.60547H57.8197C58.6289 9.60547 59.2846 8.9498 59.2846 8.14062C59.2846 7.33145 58.6289 6.67578 57.8197 6.67578C54.1174 6.67578 34.2584 6.67578 30.1355 6.67578C29.3264 6.67578 28.6707 7.33145 28.6707 8.14062C28.6707 8.9498 29.3264 9.60547 30.1355 9.60547H30.9863V15.2816H30.1355C29.3264 15.2816 28.6707 15.9373 28.6707 16.7465C28.6707 17.5557 29.3264 18.2113 30.1355 18.2113H30.9863V24.7838C30.9863 25.593 31.642 26.2486 32.4512 26.2486C33.2603 26.2486 33.916 25.593 33.916 24.7838V18.2115H54.0393V57.8957H33.9162V30.6408C33.9162 29.8316 33.2605 29.176 32.4514 29.176C31.6422 29.176 30.9865 29.8316 30.9865 30.6408V57.8957H25.3713V51.2729H26.077C26.8861 51.2729 27.5418 50.6172 27.5418 49.808C27.5418 48.9988 26.8861 48.3432 26.077 48.3432H25.3713V47.8447C25.3713 47.0355 24.7156 46.3799 23.9064 46.3799C23.0973 46.3799 22.4416 47.0355 22.4416 47.8447V48.3432H21.7361C20.927 48.3432 20.2713 48.9988 20.2713 49.808C20.2713 50.6172 20.927 51.2729 21.7361 51.2729H22.4416V57.8957H19.2744C17.8189 57.8957 16.6346 59.0799 16.6346 60.5356V70.1275H13.7402C10.7395 70.1275 7.9084 71.4514 5.97305 73.76C5.45332 74.3799 5.53457 75.3037 6.15449 75.8234C6.77441 76.3434 7.69824 76.2619 8.21797 75.642C9.59531 73.9994 11.6078 73.0572 13.74 73.0572H16.6344V76.9635H13.7402C11.9215 76.9635 10.4416 78.4432 10.4416 80.2621V90.715H6.53535V80.2947C6.53535 79.4855 5.87969 78.8299 5.07051 78.8299C4.26133 78.8299 3.60566 79.4855 3.60566 80.2947V90.715H1.46484C0.655664 90.715 0 91.3707 0 92.1799C0 92.9891 0.655664 93.6447 1.46484 93.6447H98.5352C99.3443 93.6447 100 92.9891 100 92.1799C100 91.3707 99.3443 90.7149 98.5352 90.7149ZM33.9162 15.2818V9.60547H54.0395V15.2816L33.9162 15.2818ZM79.8727 26.9332H91.3842V32.1176H79.8727V26.9332ZM63.408 32.8422C63.9297 32.8422 64.4201 33.0453 64.7889 33.4145L76.943 45.5686V51.0926L63.0281 37.1775C62.7533 36.9029 62.3809 36.7486 61.9922 36.7486H56.9691V32.8424L63.408 32.8422ZM13.3713 80.2619C13.3713 80.0586 13.5369 79.893 13.7402 79.893H16.6346V90.7146H13.3713V80.2619ZM19.5643 60.8252H63.9981C64.8072 60.8252 65.4629 60.1695 65.4629 59.3604C65.4629 58.5512 64.8072 57.8955 63.9981 57.8955H56.9693V39.6781H61.3855L76.943 55.2357V57.8955H69.8549C69.0457 57.8955 68.39 58.5512 68.39 59.3604C68.39 60.1695 69.0457 60.8252 69.8549 60.8252H83.6941V90.7149H63.8961V80.5465C63.8961 79.7373 63.2404 79.0816 62.4313 79.0816H40.827C40.0178 79.0816 39.3621 79.7373 39.3621 80.5465V90.7149H19.5643C19.5643 89.427 19.5643 62.1316 19.5643 60.8252ZM42.2918 90.7149V82.0113H60.9664V90.7149H42.2918ZM86.624 90.7149V60.5353C86.624 59.0799 85.4398 57.8955 83.9842 57.8955H79.8727C79.8727 53.3398 79.8727 39.7873 79.8727 35.0473H91.3842V90.7149H86.624Z" fill="black"/>
</g>
</g>
<defs>
<clipPath id="clip0_7_61">
<rect width="100" height="100" fill="white" transform="translate(0 0.160156)"/>
</clipPath>
<clipPath id="clip1_7_61">
<rect width="100" height="100" fill="white" transform="translate(0 0.160156)"/>
</clipPath>
</defs>
</svg>
