<svg width="100" height="101" viewBox="0 0 100 101" fill="none" xmlns="http://www.w3.org/2000/svg">
<g clip-path="url(#clip0_7_23)">
<path d="M85.748 16.1609H46.753C45.924 16.1609 45.253 16.8319 45.253 17.6609V37.4059L13.744 48.7499C13.149 48.9639 12.752 49.5289 12.752 50.1609V82.6549C12.752 83.4829 13.423 84.1549 14.252 84.1549L46.753 84.1589H85.748C86.576 84.1589 87.248 83.4869 87.248 82.6589V17.6609C87.248 16.8319 86.576 16.1609 85.748 16.1609ZM15.752 51.2159L45.253 40.5939V81.1589L15.752 81.1549V51.2159ZM84.248 81.1589H48.253V19.1609H84.248V81.1589Z" fill="black"/>
<path d="M59.746 45.1579H72.745C73.573 45.1579 74.245 44.4869 74.245 43.6579V30.6599C74.245 29.8309 73.573 29.1599 72.745 29.1599H59.746C58.918 29.1599 58.246 29.8309 58.246 30.6599V43.6579C58.246 44.4869 58.918 45.1579 59.746 45.1579ZM61.246 32.1599H71.245V42.1579H61.246V32.1599Z" fill="black"/>
<path d="M72.749 55.1589H59.753C58.925 55.1589 58.253 55.8309 58.253 56.6589V69.6569C58.253 70.4849 58.925 71.1569 59.753 71.1569H72.749C73.577 71.1569 74.249 70.4849 74.249 69.6569V56.6589C74.249 55.8309 73.577 55.1589 72.749 55.1589ZM71.249 68.1569H61.253V58.1589H71.249V68.1569Z" fill="black"/>
</g>
<defs>
<clipPath id="clip0_7_23">
<rect width="100" height="100" fill="white" transform="translate(0 0.159912)"/>
</clipPath>
</defs>
</svg>
