<svg width="100" height="101" viewBox="0 0 100 101" fill="none" xmlns="http://www.w3.org/2000/svg">
<g clip-path="url(#clip0_7_33)">
<path d="M67.5 88.16H24V41.16L49.6 19.16L75 40.58C75 40.58 75 40.63 75 40.66V49.66C75 50.0578 75.158 50.4394 75.4393 50.7207C75.7206 51.002 76.1022 51.16 76.5 51.16C76.8978 51.16 77.2793 51.002 77.5606 50.7207C77.8419 50.4394 78 50.0578 78 49.66V43.1L86.53 50.3C86.8337 50.5573 87.2271 50.6833 87.6237 50.6505C88.0204 50.6177 88.3877 50.4287 88.645 50.125C88.9022 49.8213 89.0283 49.4279 88.9955 49.0313C88.9627 48.6346 88.7737 48.2673 88.47 48.01L50.56 16.01C50.2883 15.7776 49.9425 15.6499 49.585 15.6499C49.2275 15.6499 48.8817 15.7776 48.61 16.01L11.52 47.91C11.2176 48.1752 11.033 48.5497 11.0068 48.951C10.9805 49.3523 11.1148 49.7477 11.38 50.05C11.6452 50.3523 12.0197 50.537 12.421 50.5632C12.8223 50.5895 13.2176 50.4552 13.52 50.19L21 43.72V89.66C21 90.0578 21.158 90.4394 21.4393 90.7207C21.7206 91.002 22.1022 91.16 22.5 91.16H67.5C67.8978 91.16 68.2793 91.002 68.5606 90.7207C68.8419 90.4394 69 90.0578 69 89.66C69 89.2622 68.8419 88.8806 68.5606 88.5993C68.2793 88.318 67.8978 88.16 67.5 88.16Z" fill="black"/>
<path d="M92 71.4899C90.1661 71.507 88.3478 71.1506 86.6561 70.4423C84.9644 69.7339 83.4346 68.6886 82.16 67.3699C79.6966 64.8572 78.22 61.5418 78 58.0299C78 57.8299 78 57.6399 78 57.4399C77.9955 57.272 77.9617 57.1062 77.9 56.9499C77.8454 56.5929 77.6654 56.2671 77.3924 56.0307C77.1194 55.7943 76.7711 55.6629 76.41 55.6599C76.0192 55.6703 75.6478 55.833 75.3751 56.1131C75.1024 56.3933 74.9499 56.7689 74.95 57.1599C74.95 57.4499 74.95 57.7399 74.95 58.0399C74.69 65.3699 68.27 71.3199 60.34 71.3999H60.17H60C59.6022 71.3999 59.2206 71.5579 58.9393 71.8392C58.658 72.1206 58.5 72.5021 58.5 72.8999C58.5 73.2977 58.658 73.6793 58.9393 73.9606C59.2206 74.2419 59.6022 74.3999 60 74.3999C63.8472 74.4378 67.5292 75.9693 70.2683 78.6711C73.0075 81.3729 74.5894 85.0335 74.68 88.8799C74.7234 89.3208 74.9119 89.7348 75.2159 90.0569C75.52 90.3791 75.9224 90.5912 76.36 90.6599C76.7578 90.6599 77.1394 90.5019 77.4207 90.2206C77.702 89.9393 77.86 89.5577 77.86 89.1599C77.78 81.1599 84 74.5799 91.62 74.4899H92C92.3978 74.4899 92.7794 74.3319 93.0607 74.0506C93.342 73.7693 93.5 73.3877 93.5 72.9899C93.5 72.5921 93.342 72.2106 93.0607 71.9293C92.7794 71.6479 92.3978 71.4899 92 71.4899ZM76.23 82.1599C74.4441 78.1302 71.2418 74.8958 67.23 73.0699C71.3003 71.4366 74.6063 68.3305 76.49 64.3699C77.3474 66.2651 78.536 67.9922 80 69.4699C81.4399 70.931 83.1343 72.1171 85 72.9699C81.0182 74.812 77.8839 78.0964 76.23 82.1599Z" fill="black"/>
<path d="M17.5 18.5198H17.6C19.7058 18.5706 21.7112 19.4297 23.2007 20.9192C24.6901 22.4086 25.5493 24.4141 25.6 26.5198C25.6316 26.9409 25.8119 27.3371 26.1087 27.6375C26.4054 27.9379 26.7993 28.123 27.22 28.1598C27.417 28.1572 27.6116 28.1158 27.7925 28.038C27.9735 27.9602 28.1374 27.8475 28.2749 27.7064C28.4123 27.5652 28.5206 27.3984 28.5935 27.2154C28.6665 27.0324 28.7027 26.8368 28.7 26.6398C28.6379 24.5677 29.398 22.5551 30.8143 21.0413C32.2307 19.5275 34.1883 18.6355 36.26 18.5598H36.5C36.8978 18.5598 37.2794 18.4018 37.5607 18.1205C37.842 17.8392 38 17.4576 38 17.0598C38 16.662 37.842 16.2805 37.5607 15.9992C37.2794 15.7179 36.8978 15.5598 36.5 15.5598C35.4926 15.5767 34.4926 15.3846 33.5632 14.9956C32.6338 14.6067 31.7951 14.0292 31.1 13.2998C29.7426 11.9172 28.9264 10.0933 28.8 8.15982C28.8 8.03982 28.8 7.92982 28.8 7.80982C28.7969 7.66719 28.7733 7.52575 28.73 7.38982C28.6705 7.04203 28.4886 6.72697 28.2172 6.50144C27.9459 6.27591 27.6028 6.15476 27.25 6.15982C27.053 6.16243 26.8585 6.20382 26.6775 6.28162C26.4965 6.35942 26.3326 6.47212 26.1952 6.61326C26.0577 6.75441 25.9495 6.92125 25.8765 7.10425C25.8036 7.28725 25.7674 7.48283 25.77 7.67982C25.77 7.85982 25.77 8.02982 25.77 8.19982C25.6122 10.2181 24.6884 12.0997 23.1879 13.4588C21.6875 14.8179 19.7241 15.5517 17.7 15.5098H17.46C17.0622 15.5098 16.6807 15.6679 16.3994 15.9492C16.1181 16.2305 15.96 16.612 15.96 17.0098C15.96 17.4076 16.1181 17.7892 16.3994 18.0705C16.6807 18.3518 17.0622 18.5098 17.46 18.5098L17.5 18.5198ZM27.29 13.2198C27.7472 14.0123 28.3015 14.7446 28.94 15.3998C29.5562 16.0324 30.2481 16.5866 31 17.0498C29.3678 18.0548 28.0295 19.4725 27.12 21.1598C26.6073 20.2765 25.9783 19.4659 25.25 18.7498C24.6179 18.1399 23.9165 17.6063 23.16 17.1598C24.8594 16.2328 26.284 14.8737 27.29 13.2198Z" fill="black"/>
<path d="M42.5 45.1599C42.1022 45.1599 41.7206 45.3179 41.4393 45.5993C41.158 45.8806 41 46.2621 41 46.6599V62.6599C41 63.0577 41.158 63.4393 41.4393 63.7206C41.7206 64.0019 42.1022 64.1599 42.5 64.1599H58.5C58.8978 64.1599 59.2794 64.0019 59.5607 63.7206C59.842 63.4393 60 63.0577 60 62.6599V46.6599C60 46.2621 59.842 45.8806 59.5607 45.5993C59.2794 45.3179 58.8978 45.1599 58.5 45.1599H42.5ZM57 61.1599H44V48.1599H57V61.1599Z" fill="black"/>
</g>
<defs>
<clipPath id="clip0_7_33">
<rect width="100" height="100" fill="white" transform="translate(0 0.159912)"/>
</clipPath>
</defs>
</svg>
