<svg width="100" height="101" viewBox="0 0 100 101" fill="none" xmlns="http://www.w3.org/2000/svg">
<g clip-path="url(#clip0_7_119)">
<g clip-path="url(#clip1_7_119)">
<path d="M94.5434 46.9752C91.8747 46.3092 89.1693 47.9237 88.4883 50.5885L86.6667 57.4185V25.1602C90.3486 25.1602 93.3333 22.1754 93.3333 18.4935V13.4935C93.3251 11.9217 92.5858 10.4432 91.3333 9.49349L82.8867 3.16016C80.2878 1.21505 77.1295 0.162672 73.8833 0.160156H26.1167C22.8716 0.162913 19.7144 1.2153 17.1167 3.16016L8.66667 9.49349C7.41358 10.4427 6.67419 11.9215 6.66667 13.4935V18.4935C6.66667 22.1754 9.65144 25.1602 13.3333 25.1602V57.4185L11.5183 50.6135C10.8413 47.9363 8.12221 46.3148 5.44501 46.9918C2.76781 47.6688 1.14633 50.388 1.82334 53.0652L8.49001 78.0385C8.72975 78.9832 9.24145 79.8368 9.96167 80.4935L8.33334 98.3435C8.29172 98.7859 8.42849 99.2266 8.71327 99.5677C8.99806 99.9089 9.40727 100.122 9.85001 100.16H10.0017C10.8666 100.164 11.5905 99.5049 11.6683 98.6435L13.1883 81.8268H31.6667C34.4281 81.8268 36.6667 84.0654 36.6667 86.8268V93.5452C35.5903 94.9708 35.0054 96.7072 35 98.4935C35 99.414 35.7462 100.16 36.6667 100.16H63.3333C64.2538 100.16 65 99.414 65 98.4935C64.9946 96.7072 64.4098 94.9708 63.3333 93.5452V86.8268C63.3333 84.0654 65.5719 81.8268 68.3333 81.8268H86.8117L88.3333 98.6435C88.4112 99.5049 89.1351 100.164 90 100.16H90.1517C90.5941 100.122 91.0029 99.9083 91.2873 99.5672C91.5718 99.2261 91.7083 98.7857 91.6667 98.3435L90.045 80.5102C90.7648 79.8599 91.2767 79.0117 91.5167 78.0718L98.1833 53.0468C98.5074 51.7589 98.3057 50.395 97.6229 49.2559C96.94 48.1168 95.832 47.2963 94.5434 46.9752ZM63.3333 78.4935C63.3333 76.6525 64.8257 75.1602 66.6667 75.1602H81.935L81.815 75.6135C81.5766 76.5665 81.6265 77.5689 81.9583 78.4935H63.3333ZM86.6667 21.8268H80C78.1591 21.8268 76.6667 20.3344 76.6667 18.4935V15.1602H90V18.4935C90 20.3344 88.5076 21.8268 86.6667 21.8268ZM26.6667 15.1602H40V18.4935C40 20.3344 38.5076 21.8268 36.6667 21.8268H30C28.1591 21.8268 26.6667 20.3344 26.6667 18.4935V15.1602ZM43.3333 15.1602H56.6667V18.4935C56.6667 20.3344 55.1743 21.8268 53.3333 21.8268H46.6667C44.8257 21.8268 43.3333 20.3344 43.3333 18.4935V15.1602ZM60 15.1602H73.3333V18.4935C73.3333 20.3344 71.841 21.8268 70 21.8268H63.3333C61.4924 21.8268 60 20.3344 60 18.4935V15.1602ZM19.12 5.82682C21.1396 4.31496 23.5939 3.49649 26.1167 3.49349H73.8833C76.4073 3.49565 78.8629 4.31417 80.8833 5.82682L88.8833 11.8268H11.1117L19.12 5.82682ZM10 18.4935V15.1602H23.3333V18.4935C23.3333 20.3344 21.841 21.8268 20 21.8268H13.3333C11.4924 21.8268 10 20.3344 10 18.4935ZM16.6667 25.1602H20C21.9145 25.1612 23.7366 24.337 25 22.8985C26.2634 24.337 28.0855 25.1612 30 25.1602H36.6667C38.5812 25.1612 40.4033 24.337 41.6667 22.8985C42.9301 24.337 44.7522 25.1612 46.6667 25.1602H53.3333C55.2479 25.1612 57.07 24.337 58.3333 22.8985C59.5967 24.337 61.4188 25.1612 63.3333 25.1602H70C71.9145 25.1612 73.7366 24.337 75 22.8985C76.2634 24.337 78.0855 25.1612 80 25.1602H83.3333V69.9202L82.8334 71.8268H66.6667C62.9848 71.8268 60 74.8116 60 78.4935C60.0029 79.8004 60.7692 80.9851 61.96 81.5235C60.7025 83.0053 60.0084 84.8834 60 86.8268V90.8668C59.1679 90.5133 58.2833 90.2988 57.3817 90.2318C56.815 89.5402 55 86.5668 55 76.8268V65.1602H73.3333V66.8268C73.3333 67.7473 74.0795 68.4935 75 68.4935C75.9205 68.4935 76.6667 67.7473 76.6667 66.8268V60.1602C76.6667 57.3987 74.4281 55.1602 71.6667 55.1602H55.255L56.3783 47.2985C56.5151 46.3418 56.2299 45.3729 55.5968 44.6428C54.9636 43.9128 54.0447 43.4934 53.0783 43.4935H52.6017C53.3744 41.9639 54.3492 40.545 55.5 39.2752C57.5703 40.7607 60.4115 40.5297 62.2146 38.7292C64.0176 36.9287 64.2527 34.0878 62.7701 32.0154C61.2875 29.943 58.5228 29.2482 56.2366 30.3733C53.9503 31.4983 52.8142 34.1128 53.5517 36.5518C52.633 37.4568 51.8041 38.4487 51.0767 39.5135C50.792 38.0013 50.3305 36.5279 49.7017 35.1235C49.8921 34.6008 49.9929 34.0497 50 33.4935C50 30.7321 47.7614 28.4935 45 28.4935C42.2386 28.4935 40 30.7321 40 33.4935C40 36.2549 42.2386 38.4935 45 38.4935C45.7819 38.4887 46.5514 38.2978 47.245 37.9368C47.7904 39.7449 48.1287 41.6091 48.2533 43.4935H46.92C45.9536 43.4934 45.0348 43.9128 44.4016 44.6428C43.7684 45.3729 43.4833 46.3418 43.62 47.2985L44.745 55.1602H28.3333C25.5719 55.1602 23.3333 57.3987 23.3333 60.1602V66.8268C23.3333 67.7473 24.0795 68.4935 25 68.4935C25.9205 68.4935 26.6667 67.7473 26.6667 66.8268V65.1602H45V76.8268C45 86.7752 43.1033 89.6718 42.6667 90.2268C41.7483 90.29 40.847 90.5063 40 90.8668V86.8268C39.9916 84.8834 39.2975 83.0053 38.04 81.5235C39.2308 80.9851 39.9972 79.8004 40 78.4935C40 74.8116 37.0152 71.8268 33.3333 71.8268H17.175L16.6667 69.9185V25.1602ZM46.9217 46.8268H53.0783L51.8883 55.1602H48.1117L46.9217 46.8268ZM45 35.1602C44.0795 35.1602 43.3333 34.414 43.3333 33.4935C43.3333 32.573 44.0795 31.8268 45 31.8268C45.9205 31.8268 46.6667 32.573 46.6667 33.4935C46.6667 34.414 45.9205 35.1602 45 35.1602ZM46.6667 58.4935H71.6667C72.5872 58.4935 73.3333 59.2397 73.3333 60.1602V61.8268H26.6667V60.1602C26.6667 59.2397 27.4129 58.4935 28.3333 58.4935H46.6667ZM48.3333 65.1602H51.6667V76.8268C51.6667 83.7702 52.5517 87.8035 53.54 90.1602H46.46C47.4483 87.8035 48.3333 83.7702 48.3333 76.8268V65.1602ZM56.6667 35.1602C56.6667 34.2397 57.4129 33.4935 58.3333 33.4935C59.2538 33.4935 60 34.2397 60 35.1602C60 36.0806 59.2538 36.8268 58.3333 36.8268C57.4129 36.8268 56.6667 36.0806 56.6667 35.1602ZM18.0383 78.4935C18.3708 77.5602 18.4195 76.5494 18.1783 75.5885L18.065 75.1602H33.3333C35.1743 75.1602 36.6667 76.6525 36.6667 78.4935H18.0383ZM5.05001 52.2318C4.91008 51.6528 5.08971 51.043 5.52123 50.6323C5.95275 50.2216 6.57061 50.0723 7.14206 50.2406C7.71352 50.409 8.15175 50.8694 8.29167 51.4485L14.9583 76.4218C15.1747 77.317 14.6243 78.218 13.7292 78.4343C12.834 78.6506 11.933 78.1003 11.7167 77.2052L5.05001 52.2318ZM38.6183 96.8268C39.3273 94.8307 41.215 93.4961 43.3333 93.4935H56.635C56.6617 93.4935 56.6883 93.5018 56.715 93.5018H56.74C58.8323 93.5322 60.6844 94.8622 61.3817 96.8352L38.6183 96.8268ZM94.9517 52.2052L88.285 77.2302C88.0542 78.1178 87.1553 78.6574 86.2633 78.4435C85.3777 78.2233 84.8339 77.3317 85.0434 76.4435L91.71 51.4202C91.9259 50.525 92.8265 49.9743 93.7217 50.1902C94.6168 50.406 95.1675 51.3067 94.9517 52.2018V52.2052Z" fill="black"/>
</g>
</g>
<defs>
<clipPath id="clip0_7_119">
<rect width="100" height="100" fill="white" transform="translate(0 0.160156)"/>
</clipPath>
<clipPath id="clip1_7_119">
<rect width="100" height="100" fill="white" transform="translate(0 0.160156)"/>
</clipPath>
</defs>
</svg>
