<svg width="100" height="101" viewBox="0 0 100 101" fill="none" xmlns="http://www.w3.org/2000/svg">
<g clip-path="url(#clip0_7_70)">
<g clip-path="url(#clip1_7_70)">
<path d="M64.2608 12.517C63.2558 5.47281 57.1243 0.160156 49.9992 0.160156C45.417 0.160156 41.0652 2.37132 38.3594 6.07712C37.8068 6.83288 37.9721 7.89303 38.7279 8.4457C39.4812 8.99638 40.5438 8.83301 41.0955 8.07626C43.1666 5.24241 46.4945 3.55015 49.9987 3.55015C55.4479 3.55015 60.1359 7.61098 60.9046 12.9951C61.0257 13.8408 61.7512 14.451 62.581 14.451C62.6599 14.451 62.7413 14.4451 62.8223 14.4342C63.7489 14.3016 64.3929 13.443 64.2608 12.517Z" fill="black"/>
<path d="M88.7406 31.4909L83.6559 23.0162C83.35 22.5052 82.7983 22.1934 82.2024 22.1934H77.3297C76.3942 22.1934 75.635 22.9526 75.635 23.8881C75.635 24.8236 76.3942 25.5829 77.3297 25.5829H81.2431L84.2939 30.6676H15.7041L18.7549 25.5829H20.55C21.4855 25.5829 22.2447 24.8236 22.2447 23.8881C22.2447 22.9526 21.4855 22.1934 20.55 22.1934H17.7956C17.1997 22.1934 16.6481 22.5052 16.3422 23.0162L11.2574 31.4909C10.9431 32.0152 10.9357 32.6672 11.2361 33.1985C11.5365 33.7299 12.0996 34.0586 12.7109 34.0586H87.2872C87.8984 34.0586 88.461 33.7299 88.7619 33.1985C89.0629 32.6672 89.0549 32.0143 88.7406 31.4909Z" fill="black"/>
<path d="M80.2921 15.8627C80.0548 15.4798 79.6759 15.2082 79.2379 15.1059L56.1327 9.7019C55.6952 9.59911 55.2344 9.67558 54.8521 9.91194C54.4707 10.1493 54.1986 10.5282 54.0963 10.9661L52.3539 18.4145C52.1404 19.3257 52.7064 20.2373 53.6181 20.4499C54.5293 20.6634 55.442 20.0973 55.6545 19.1856L57.0111 13.3883L76.8152 18.0207L73.7033 31.3259C73.4898 32.2371 74.0559 33.1488 74.9676 33.3613C75.0982 33.3916 75.2278 33.406 75.3559 33.406C76.1255 33.406 76.8222 32.8787 77.0034 32.0976L80.5017 17.1423C80.605 16.7048 80.5295 16.244 80.2921 15.8627Z" fill="black"/>
<path d="M50.8955 19.8696L49.3512 6.80763C49.2986 6.36123 49.0707 5.95356 48.7171 5.67549C48.3636 5.39741 47.9172 5.2703 47.4688 5.32293L19.1204 8.67369C18.1913 8.78393 17.5269 9.62609 17.6367 10.5561L20.2113 32.3416C20.3136 33.2041 21.045 33.8382 21.8927 33.8382C21.9587 33.8382 22.0267 33.8337 22.0943 33.8263C23.0228 33.716 23.6872 32.8739 23.578 31.9438L21.2019 11.8402L46.1842 8.88771L47.5289 20.2663C47.6391 21.1959 48.4773 21.8563 49.4113 21.751C50.3404 21.6418 51.0048 20.7991 50.8955 19.8696Z" fill="black"/>
<path d="M64.3001 31.7194L60.9359 17.7294C60.8306 17.2929 60.5561 16.9151 60.1732 16.6802C59.7904 16.4473 59.331 16.3743 58.8916 16.4786L31.5874 23.045C30.6773 23.2635 30.1171 24.1792 30.3356 25.0894L32.017 32.0819C32.2355 32.9931 33.1511 33.5537 34.0608 33.3337C34.971 33.1152 35.5311 32.1996 35.3126 31.2894L34.027 25.9444L58.0355 20.1715L61.0034 32.5129C61.1897 33.29 61.8848 33.8114 62.65 33.8114C62.7816 33.8114 62.9147 33.796 63.0483 33.7637C63.9585 33.5447 64.5186 32.6296 64.3001 31.7194Z" fill="black"/>
<path d="M88.9814 32.277C88.9347 31.3763 88.1909 30.6692 87.2881 30.6692H12.7118C11.8091 30.6692 11.0652 31.3758 11.0186 32.277L7.62858 98.3786C7.60474 98.8424 7.77258 99.2963 8.09236 99.6329C8.41264 99.9691 8.85656 100.16 9.32134 100.16H90.6771C91.1414 100.16 91.5858 99.9696 91.9076 99.6329C92.2269 99.2963 92.3947 98.8429 92.3714 98.3786L88.9814 32.277ZM11.105 96.7703L14.3212 34.0587H85.6768L88.893 96.7703H11.105Z" fill="black"/>
<path d="M62.7111 37.448C59.907 37.448 57.6263 39.7287 57.6263 42.5327C57.6263 45.3368 59.907 47.6175 62.7111 47.6175C65.5151 47.6175 67.7958 45.3368 67.7958 42.5327C67.7958 39.7287 65.5151 37.448 62.7111 37.448ZM62.7111 44.228C61.7761 44.228 61.0163 43.4678 61.0163 42.5332C61.0163 41.5987 61.7766 40.8385 62.7111 40.8385C63.6456 40.8385 64.4058 41.5987 64.4058 42.5332C64.4058 43.4678 63.6456 44.228 62.7111 44.228Z" fill="black"/>
<path d="M37.2874 37.448C34.4834 37.448 32.2027 39.7287 32.2027 42.5327C32.2027 45.3368 34.4834 47.6175 37.2874 47.6175C40.0915 47.6175 42.3722 45.3368 42.3722 42.5327C42.3722 39.7287 40.0915 37.448 37.2874 37.448ZM37.2874 44.228C36.3529 44.228 35.5927 43.4678 35.5927 42.5332C35.5927 41.5987 36.3529 40.8385 37.2874 40.8385C38.222 40.8385 38.9822 41.5987 38.9822 42.5332C38.9822 43.4678 38.222 44.228 37.2874 44.228Z" fill="black"/>
<path d="M62.7111 42.5327H62.5805C61.645 42.5327 60.8857 43.292 60.8857 44.2275C60.8857 44.4589 60.9314 44.6798 61.0163 44.8809V53.5493C61.0163 59.6237 56.0741 64.5664 49.9992 64.5664C43.9244 64.5664 38.9821 59.6242 38.9821 53.5493V44.228C38.9821 43.2924 38.2229 42.5332 37.2874 42.5332C36.3519 42.5332 35.5927 43.2924 35.5927 44.228V53.5498C35.5927 61.4937 42.0553 67.9564 49.9992 67.9564C57.9432 67.9564 64.4058 61.4937 64.4058 53.5498V44.228C64.4058 43.2924 63.6466 42.5327 62.7111 42.5327Z" fill="black"/>
</g>
</g>
<defs>
<clipPath id="clip0_7_70">
<rect width="100" height="100" fill="white" transform="translate(0 0.160156)"/>
</clipPath>
<clipPath id="clip1_7_70">
<rect width="100" height="100" fill="white" transform="translate(0 0.160156)"/>
</clipPath>
</defs>
</svg>
