<svg width="100" height="101" viewBox="0 0 100 101" fill="none" xmlns="http://www.w3.org/2000/svg">
<g clip-path="url(#clip0_7_44)">
<path d="M96.875 42.3474H81.25V37.6599C81.25 36.7958 80.5516 36.0974 79.6875 36.0974C77.2969 36.0974 75.1797 37.2005 73.7453 38.8974C73.3625 38.663 72.9609 38.4584 72.5297 38.3146L69.325 37.2443C68.0469 36.8193 67.1875 35.6287 67.1875 34.2818V32.9724H84.375C86.0984 32.9724 87.5 31.5709 87.5 29.8474V4.84741C87.5 3.12397 86.0984 1.72241 84.375 1.72241H40.625C38.9016 1.72241 37.5 3.12397 37.5 4.84741V29.8474C37.5 31.5709 38.9016 32.9724 40.625 32.9724H57.8125V34.2818C57.8125 35.6287 56.9531 36.8193 55.675 37.2458L52.4703 38.3146C50.5703 38.9474 49.175 40.4833 48.6625 42.3474H29.6875V15.7849C29.6875 14.9208 28.9891 14.2224 28.125 14.2224H9.375C8.51094 14.2224 7.8125 14.9208 7.8125 15.7849V42.3474H3.125C2.26094 42.3474 1.5625 43.0458 1.5625 43.9099V53.2849V97.0349C1.5625 97.899 2.26094 98.5974 3.125 98.5974H9.375C10.2391 98.5974 10.9375 97.899 10.9375 97.0349V86.0974H26.5625V97.0349C26.5625 97.899 27.2609 98.5974 28.125 98.5974H34.375C35.2391 98.5974 35.9375 97.899 35.9375 97.0349V54.8474H71.875V65.7849H51.5625C47.2547 65.7849 43.75 69.2896 43.75 73.5974V76.7224C43.75 77.5865 44.4484 78.2849 45.3125 78.2849H57.8125V79.4693C57.8125 83.1193 56.4531 86.5521 53.9984 89.2224H51.5625C48.9781 89.2224 46.875 91.3255 46.875 93.9099C46.875 96.4943 48.9781 98.5974 51.5625 98.5974H73.4375C76.0219 98.5974 78.125 96.4943 78.125 93.9099C78.125 91.3255 76.0219 89.2224 73.4375 89.2224H71.0016C68.5469 86.5521 67.1875 83.1193 67.1875 79.4693V78.2849H76.5625C79.1469 78.2849 81.25 76.1818 81.25 73.5974V67.3474V54.8474H89.0625V97.0349C89.0625 97.899 89.7609 98.5974 90.625 98.5974H96.875C97.7391 98.5974 98.4375 97.899 98.4375 97.0349V53.2849V43.9099C98.4375 43.0458 97.7391 42.3474 96.875 42.3474ZM84.375 4.84741L84.3766 23.5974H40.625V4.84741H84.375ZM40.625 26.7224H84.3781V29.8474H40.625V26.7224ZM53.4594 41.2771L56.6641 40.2099C59.2188 39.3583 60.9375 36.9755 60.9375 34.2818V32.9724H64.0625V34.2818C64.0625 36.9771 65.7812 39.3583 68.3359 40.2099L71.5406 41.2787C71.7953 41.3646 72.0344 41.4849 72.2516 41.638C72.1781 41.8755 72.0828 42.1021 72.0328 42.349H52.0547C52.3891 41.8599 52.8703 41.474 53.4594 41.2771ZM26.5625 32.9724H10.9375V26.7224H26.5625V32.9724ZM26.5625 17.3474V23.5974H10.9375V17.3474H26.5625ZM10.9375 36.0974H26.5625V42.3474H10.9375V36.0974ZM7.8125 95.4724H4.6875V54.8474H7.8125V95.4724ZM26.5625 54.8474V67.3474H10.9375V54.8474H26.5625ZM10.9375 82.9724V70.4724H26.5625V82.9724H10.9375ZM32.8125 95.4724H29.6875V54.8474H32.8125V95.4724ZM34.375 51.7224H28.125H9.375H4.6875V45.4724H71.875V51.7224H34.375ZM75 43.9099C75 41.8724 76.3063 40.1349 78.125 39.4896V65.7849H75V43.9099ZM75 93.9099C75 94.7724 74.3 95.4724 73.4375 95.4724H51.5625C50.7 95.4724 50 94.7724 50 93.9099C50 93.0474 50.7 92.3474 51.5625 92.3474H73.4375C74.3 92.3474 75 93.0474 75 93.9099ZM67.0141 89.2224H57.9859C59.9047 86.3599 60.9375 82.9943 60.9375 79.4693V78.2849H64.0625V79.4693C64.0625 82.9943 65.0953 86.3599 67.0141 89.2224ZM78.125 73.5974C78.125 74.4599 77.425 75.1599 76.5625 75.1599H46.875V73.5974C46.875 71.013 48.9781 68.9099 51.5625 68.9099H78.125V73.5974ZM81.25 45.4724H95.3125V51.7224H90.625H81.25V45.4724ZM95.3125 95.4724H92.1875V54.8474H95.3125V95.4724Z" fill="black"/>
<path d="M15.625 57.9724H21.875V61.0974H15.625V57.9724Z" fill="black"/>
<path d="M15.625 73.5974H21.875V76.7224H15.625V73.5974Z" fill="black"/>
</g>
<defs>
<clipPath id="clip0_7_44">
<rect width="100" height="100" fill="white" transform="translate(0 0.159912)"/>
</clipPath>
</defs>
</svg>
